<svg width="24" height="25" viewBox="0 0 24 25" fill="none" xmlns="http://www.w3.org/2000/svg">
<path fill-rule="evenodd" clip-rule="evenodd" d="M3.736 5.25026H1C0.734784 5.25026 0.48043 5.1449 0.292893 4.95737C0.105357 4.76983 0 4.51548 0 4.25026C0 3.98504 0.105357 3.73069 0.292893 3.54315C0.48043 3.35562 0.734784 3.25026 1 3.25026H3.736C3.95064 2.46053 4.41917 1.76336 5.06933 1.26633C5.71948 0.769291 6.51512 0.5 7.3335 0.5C8.15188 0.5 8.94752 0.769291 9.59767 1.26633C10.2478 1.76336 10.7164 2.46053 10.931 3.25026H23C23.2652 3.25026 23.5196 3.35562 23.7071 3.54315C23.8946 3.73069 24 3.98504 24 4.25026C24 4.51548 23.8946 4.76983 23.7071 4.95737C23.5196 5.1449 23.2652 5.25026 23 5.25026H10.931C10.7164 6.03999 10.2478 6.73715 9.59767 7.23419C8.94752 7.73123 8.15188 8.00052 7.3335 8.00052C6.51512 8.00052 5.71948 7.73123 5.06933 7.23419C4.41917 6.73715 3.95064 6.03999 3.736 5.25026ZM8.30525 2.79519C8.01746 2.60289 7.67912 2.50026 7.333 2.50026C6.86903 2.50079 6.42422 2.68533 6.09615 3.01341C5.76807 3.34148 5.58353 3.78629 5.583 4.25026C5.583 4.59638 5.68564 4.93472 5.87793 5.22251C6.07022 5.51029 6.34353 5.73459 6.6633 5.86705C6.98307 5.9995 7.33494 6.03416 7.67441 5.96663C8.01388 5.89911 8.3257 5.73244 8.57044 5.4877C8.81518 5.24295 8.98185 4.93113 9.04937 4.59167C9.1169 4.2522 9.08224 3.90033 8.94979 3.58056C8.81734 3.26079 8.59303 2.98748 8.30525 2.79519ZM23 11.499H20.264C20.0497 10.7091 19.5814 10.0117 18.9313 9.51446C18.2812 9.01722 17.4855 8.7478 16.667 8.7478C15.8485 8.7478 15.0528 9.01722 14.4027 9.51446C13.7526 10.0117 13.2843 10.7091 13.07 11.499H1C0.734784 11.499 0.48043 11.6044 0.292893 11.7919C0.105357 11.9795 0 12.2338 0 12.499C0 12.7642 0.105357 13.0186 0.292893 13.2061C0.48043 13.3937 0.734784 13.499 1 13.499H13.07C13.2843 14.2889 13.7526 14.9864 14.4027 15.4836C15.0528 15.9808 15.8485 16.2503 16.667 16.2503C17.4855 16.2503 18.2812 15.9808 18.9313 15.4836C19.5814 14.9864 20.0497 14.2889 20.264 13.499H23C23.2652 13.499 23.5196 13.3937 23.7071 13.2061C23.8946 13.0186 24 12.7642 24 12.499C24 12.2338 23.8946 11.9795 23.7071 11.7919C23.5196 11.6044 23.2652 11.499 23 11.499ZM16.667 14.249C16.3209 14.249 15.9825 14.1464 15.6948 13.9541C15.407 13.7618 15.1827 13.4885 15.0502 13.1687C14.9178 12.849 14.8831 12.4971 14.9506 12.1576C15.0181 11.8182 15.1848 11.5063 15.4296 11.2616C15.6743 11.0169 15.9861 10.8502 16.3256 10.7827C16.6651 10.7151 17.0169 10.7498 17.3367 10.8822C17.6565 11.0147 17.9298 11.239 18.1221 11.5268C18.3144 11.8146 18.417 12.1529 18.417 12.499C18.4165 12.963 18.2319 13.4078 17.9039 13.7359C17.5758 14.064 17.131 14.2485 16.667 14.249ZM23 19.7502H10.931C10.7164 18.9605 10.2478 18.2634 9.59767 17.7663C8.94752 17.2693 8.15188 17 7.3335 17C6.51512 17 5.71948 17.2693 5.06933 17.7663C4.41917 18.2634 3.95064 18.9605 3.736 19.7502H1C0.734784 19.7502 0.48043 19.8556 0.292893 20.0431C0.105357 20.2307 0 20.485 0 20.7502C0 21.0155 0.105357 21.2698 0.292893 21.4573C0.48043 21.6449 0.734784 21.7502 1 21.7502H3.736C3.95064 22.54 4.41917 23.2371 5.06933 23.7342C5.71948 24.2312 6.51512 24.5005 7.3335 24.5005C8.15188 24.5005 8.94752 24.2312 9.59767 23.7342C10.2478 23.2371 10.7164 22.54 10.931 21.7502H23C23.2652 21.7502 23.5196 21.6449 23.7071 21.4573C23.8946 21.2698 24 21.0155 24 20.7502C24 20.485 23.8946 20.2307 23.7071 20.0431C23.5196 19.8556 23.2652 19.7502 23 19.7502ZM7.333 22.5002C6.98688 22.5002 6.64854 22.3976 6.36075 22.2053C6.07297 22.013 5.84866 21.7397 5.71621 21.4199C5.58376 21.1002 5.5491 20.7483 5.61663 20.4088C5.68415 20.0694 5.85082 19.7576 6.09556 19.5128C6.3403 19.2681 6.65213 19.1014 6.99159 19.0339C7.33106 18.9664 7.68293 19.001 8.0027 19.1335C8.32247 19.2659 8.59578 19.4902 8.78807 19.778C8.98036 20.0658 9.083 20.4041 9.083 20.7502C9.08221 21.2141 8.89758 21.6588 8.56956 21.9868C8.24154 22.3148 7.79689 22.4994 7.333 22.5002Z" fill="#212121"/>
</svg>
