<svg width="18" height="16" viewBox="0 0 18 16" fill="none" xmlns="http://www.w3.org/2000/svg">
<path d="M5.99995 6C6.7956 6 7.55866 5.68393 8.12127 5.12132C8.68388 4.55871 8.99995 3.79565 8.99995 3C8.99995 2.20435 8.68388 1.44129 8.12127 0.87868C7.55866 0.316071 6.7956 0 5.99995 0C5.2043 0 4.44124 0.316071 3.87863 0.87868C3.31602 1.44129 2.99995 2.20435 2.99995 3C2.99995 3.79565 3.31602 4.55871 3.87863 5.12132C4.44124 5.68393 5.2043 6 5.99995 6ZM13.4999 7C14.163 7 14.7989 6.73661 15.2677 6.26777C15.7366 5.79893 15.9999 5.16304 15.9999 4.5C15.9999 3.83696 15.7366 3.20107 15.2677 2.73223C14.7989 2.26339 14.163 2 13.4999 2C12.8369 2 12.201 2.26339 11.7322 2.73223C11.2633 3.20107 10.9999 3.83696 10.9999 4.5C10.9999 5.16304 11.2633 5.79893 11.7322 6.26777C12.201 6.73661 12.8369 7 13.4999 7ZM0.614949 14.428C0.418546 14.3062 0.260793 14.131 0.160058 13.923C0.0593232 13.715 0.0197511 13.4826 0.0459494 13.253C0.230305 11.8041 0.936699 10.4721 2.03276 9.50662C3.12882 8.54118 4.53932 8.00855 5.99995 8.00855C7.46058 8.00855 8.87108 8.54118 9.96714 9.50662C11.0632 10.4721 11.7696 11.8041 11.9539 13.253C12.0119 13.72 11.7819 14.173 11.3839 14.427C9.77727 15.4568 7.90833 16.0028 5.99995 16C4.09133 16.0033 2.22203 15.4576 0.614949 14.428ZM13.4999 14H13.3939C13.4639 13.703 13.4819 13.389 13.4419 13.067C13.271 11.6923 12.7212 10.3922 11.8539 9.312C12.412 9.0921 13.0085 8.986 13.6082 8.99994C14.2079 9.01388 14.7987 9.14758 15.346 9.39318C15.8933 9.63877 16.3859 9.9913 16.795 10.43C17.204 10.8688 17.5212 11.3849 17.7279 11.948C17.7911 12.1277 17.7898 12.3239 17.7241 12.5027C17.6584 12.6815 17.5325 12.8319 17.3679 12.928C16.2006 13.6315 14.8629 14.0022 13.4999 14Z" fill="#0A66C2"/>
</svg>
