<svg width="250" height="52" viewBox="0 0 250 52" fill="none" xmlns="http://www.w3.org/2000/svg">
<path d="M55.1181 1H15.748C7.05063 1 0 8.16344 0 17V35C0 43.8366 7.05063 51 15.748 51H55.1181C63.8155 51 70.8661 43.8366 70.8661 35V17C70.8661 8.16344 63.8155 1 55.1181 1Z" fill="#FDD503"/>
<path d="M35.4221 9C29.4458 9 24.6062 13.928 24.6062 20C24.6062 26.072 29.4458 31 35.4221 31C41.4093 31 46.2597 26.072 46.2597 20C46.2597 13.928 41.4093 9 35.4221 9ZM40.0127 26.6L35.433 23.795L30.8532 26.6L32.0658 21.309L28.0275 17.756L33.3542 17.294L35.433 12.3L37.5117 17.283L42.8385 17.745L38.8001 21.298L40.0127 26.6Z" fill="#232323"/>
<path d="M15.748 41.4294L18.1811 43L17.5354 40.04L19.6851 38.0484L16.8543 37.7916L15.748 35L14.6417 37.7916L11.811 38.0484L13.9606 40.04L13.315 43L15.748 41.4294Z" fill="#232323"/>
<path d="M25.5906 41.4294L28.0236 43L27.378 40.04L29.5276 38.0484L26.6969 37.7916L25.5906 35L24.4843 37.7916L21.6536 38.0484L23.8032 40.04L23.1575 43L25.5906 41.4294Z" fill="#232323"/>
<path d="M35.4331 41.4294L37.8662 43L37.2205 40.04L39.3701 38.0484L36.5394 37.7916L35.4331 35L34.3268 37.7916L31.4961 38.0484L33.6457 40.04L33 43L35.4331 41.4294Z" fill="#232323"/>
<path d="M45.2756 41.4294L47.7087 43L47.063 40.04L49.2126 38.0484L46.3819 37.7916L45.2756 35L44.1693 37.7916L41.3386 38.0484L43.4882 40.04L42.8426 43L45.2756 41.4294Z" fill="#232323"/>
<path d="M55.1182 41.4294L57.5512 43L56.9056 40.04L59.0552 38.0484L56.2245 37.7916L55.1182 35L54.0119 37.7916L51.1812 38.0484L53.3308 40.04L52.6851 43L55.1182 41.4294Z" fill="#232323"/>
<path d="M83.2462 21.4688V42H77.6865V16.6406H82.9924L83.2462 21.4688ZM90.8818 16.4766L90.8355 21.7266C90.4973 21.664 90.1283 21.6172 89.7283 21.586C89.3438 21.5546 88.9594 21.539 88.5749 21.539C87.6214 21.539 86.7832 21.6796 86.0605 21.961C85.3377 22.2266 84.7302 22.6172 84.2381 23.1328C83.7613 23.6328 83.3922 24.2422 83.1308 24.961C82.8694 25.6796 82.7155 26.4844 82.6694 27.375L81.4007 27.4688C81.4007 25.875 81.5544 24.3984 81.8619 23.039C82.1696 21.6796 82.631 20.4844 83.2462 19.4531C83.8767 18.4219 84.6609 17.6172 85.5991 17.0391C86.5527 16.4609 87.6521 16.1719 88.8979 16.1719C89.2361 16.1719 89.5975 16.2031 89.982 16.2656C90.382 16.3281 90.6818 16.3984 90.8818 16.4766ZM102.073 42.4688C100.227 42.4688 98.5586 42.164 97.0668 41.5546C95.5905 40.9296 94.3294 40.0624 93.2836 38.9532C92.2533 37.8438 91.4611 36.539 90.9076 35.039C90.3538 33.539 90.0771 31.9218 90.0771 30.1876V29.25C90.0771 27.2656 90.3615 25.4688 90.9306 23.8594C91.4997 22.25 92.2916 20.875 93.3066 19.7344C94.3218 18.5781 95.5212 17.6953 96.9054 17.0859C98.2895 16.4766 99.7889 16.1719 101.404 16.1719C103.188 16.1719 104.749 16.4766 106.087 17.0859C107.425 17.6953 108.532 18.5547 109.408 19.6641C110.3 20.7578 110.962 22.0624 111.392 23.5782C111.838 25.0938 112.061 26.7656 112.061 28.5938V31.0078H92.7761V26.9532H106.571V26.5078C106.54 25.4922 106.34 24.539 105.971 23.6484C105.617 22.7578 105.072 22.039 104.333 21.4922C103.595 20.9454 102.611 20.6718 101.381 20.6718C100.458 20.6718 99.6351 20.875 98.9123 21.2812C98.2048 21.6718 97.6127 22.2422 97.1361 22.9922C96.6594 23.7422 96.2903 24.6484 96.0288 25.711C95.7828 26.7578 95.6597 27.9376 95.6597 29.25V30.1876C95.6597 31.2968 95.8058 32.3282 96.0979 33.2812C96.4056 34.2188 96.8515 35.039 97.4359 35.7422C98.0204 36.4454 98.7277 37 99.5582 37.4062C100.389 37.7968 101.335 37.9922 102.396 37.9922C103.734 37.9922 104.925 37.7188 105.971 37.1718C107.017 36.625 107.924 35.8516 108.693 34.8516L111.623 37.7344C111.085 38.5312 110.385 39.2968 109.524 40.0312C108.663 40.75 107.609 41.336 106.363 41.789C105.133 42.2422 103.703 42.4688 102.073 42.4688ZM121.361 37.5234L127.474 16.6406H133.241L124.567 42H120.968L121.361 37.5234ZM116.678 16.6406L122.906 37.6172L123.206 42H119.607L110.888 16.6406H116.678ZM139.795 16.6406V42H134.213V16.6406H139.795ZM133.843 9.98438C133.843 9.12499 134.12 8.41406 134.674 7.85156C135.243 7.27344 136.027 6.98438 137.027 6.98438C138.011 6.98438 138.788 7.27344 139.357 7.85156C139.926 8.41406 140.21 9.12499 140.21 9.98438C140.21 10.8281 139.926 11.5312 139.357 12.0938C138.788 12.6562 138.011 12.9375 137.027 12.9375C136.027 12.9375 135.243 12.6562 134.674 12.0938C134.12 11.5312 133.843 10.8281 133.843 9.98438ZM154.054 42.4688C152.209 42.4688 150.54 42.164 149.048 41.5546C147.572 40.9296 146.311 40.0624 145.265 38.9532C144.235 37.8438 143.443 36.539 142.889 35.039C142.335 33.539 142.059 31.9218 142.059 30.1876V29.25C142.059 27.2656 142.343 25.4688 142.912 23.8594C143.481 22.25 144.273 20.875 145.288 19.7344C146.303 18.5781 147.503 17.6953 148.887 17.0859C150.271 16.4766 151.77 16.1719 153.385 16.1719C155.169 16.1719 156.73 16.4766 158.068 17.0859C159.406 17.6953 160.513 18.5547 161.39 19.6641C162.282 20.7578 162.943 22.0624 163.374 23.5782C163.82 25.0938 164.043 26.7656 164.043 28.5938V31.0078H144.758V26.9532H158.552V26.5078C158.522 25.4922 158.322 24.539 157.953 23.6484C157.599 22.7578 157.053 22.039 156.315 21.4922C155.577 20.9454 154.592 20.6718 153.362 20.6718C152.439 20.6718 151.616 20.875 150.894 21.2812C150.186 21.6718 149.594 22.2422 149.117 22.9922C148.641 23.7422 148.272 24.6484 148.01 25.711C147.764 26.7578 147.641 27.9376 147.641 29.25V30.1876C147.641 31.2968 147.787 32.3282 148.079 33.2812C148.387 34.2188 148.833 35.039 149.417 35.7422C150.002 36.4454 150.709 37 151.54 37.4062C152.37 37.7968 153.316 37.9922 154.377 37.9922C155.715 37.9922 156.907 37.7188 157.953 37.1718C158.998 36.625 159.906 35.8516 160.675 34.8516L163.604 37.7344C163.066 38.5312 162.366 39.2968 161.505 40.0312C160.644 40.75 159.59 41.336 158.345 41.789C157.114 42.2422 155.684 42.4688 154.054 42.4688ZM172.327 36.375L178.094 16.6406H181.647L180.678 22.5468L174.864 42H171.681L172.327 36.375ZM168.936 16.6406L173.434 36.4688L173.803 42H170.251L163.492 16.6406H168.936ZM187.045 36.2344L191.405 16.6406H196.826L190.09 42H186.537L187.045 36.2344ZM182.246 16.6406L187.944 36.1406L188.66 42H185.476L179.594 22.5234L178.625 16.6406H182.246ZM220.313 37.336V42H202.48V37.336H220.313ZM204.118 7.875V42H198.329V7.875H204.118ZM217.982 22.125V26.7188H202.48V22.125H217.982ZM220.197 7.875V12.5625H202.48V7.875H220.197ZM231.964 42H224.789L224.837 37.336H231.964C234.041 37.336 235.777 36.875 237.177 35.9532C238.592 35.0312 239.653 33.711 240.362 31.9922C241.085 30.2734 241.445 28.2266 241.445 25.8516V24C241.445 22.1562 241.238 20.5234 240.823 19.1016C240.423 17.6797 239.823 16.4844 239.024 15.5156C238.238 14.5469 237.27 13.8125 236.116 13.3125C234.978 12.8125 233.663 12.5625 232.171 12.5625H224.651V7.875H232.171C234.401 7.875 236.439 8.25782 238.285 9.02344C240.13 9.77344 241.722 10.8594 243.061 12.2812C244.413 13.7031 245.453 15.4062 246.175 17.3906C246.898 19.375 247.258 21.5938 247.258 24.0468V25.8516C247.258 28.3046 246.898 30.5234 246.175 32.5078C245.453 34.4922 244.413 36.1954 243.061 37.6172C241.707 39.0234 240.092 40.1094 238.216 40.875C236.354 41.625 234.272 42 231.964 42ZM227.996 7.875V42H222.207V7.875H227.996Z" fill="white"/>
</svg>
